<svg xmlns="http://www.w3.org/2000/svg" width="148" height="36" viewBox="0 0 148 36">
  <defs>
    <style>
      .cls-1 {
        fill: #fff;
      }

      .cls-1, .cls-2 {
        stroke: #000;
        stroke-width: 0;
        fill-rule: evenodd;
      }

      .cls-2 {
        fill: #ff8e36;
      }
    </style>
  </defs>
  <path id="Rectangle_20_copy_5" data-name="Rectangle 20 copy 5" class="cls-1" d="M44,36V12H36V36H28V0h8V8H48v4h4V36H44ZM64,16V36H56V8h8v4h4V8h8v8H64Zm40,12v4h-4V28h4ZM84,36V32H80V12h4V8h16v4h4V24H88v8h12v4H84ZM96,20V12H88v8h8ZM120,4V8h4v4h-4V36h-8V12h-4V8h4V4h4V0h12V4h-8Zm20,12v4h4v4h4v8h-4v4H132V32h8V28h-4V24h-4V20h-4V12h4V8h12v4h-8v4h4ZM128,28h4v4h-4V28Zm20-12h-4V12h4v4Z"/>
  <path id="Rectangle_20_copy_7" data-name="Rectangle 20 copy 7" class="cls-2" d="M4,36V32H0V24H4V20H16V12H4V8H20v4h4V36H4ZM8,24v8h8V24H8ZM0,16V12H4v4H0Z"/>
</svg>
